<svg width="32" height="32" viewBox="0 0 32 32" fill="none" xmlns="http://www.w3.org/2000/svg">
<path d="M8.88846 19.2362C8.88846 19.7458 8.73733 20.2441 8.45417 20.6678C8.17102 21.0916 7.76856 21.4219 7.29768 21.6169C6.82681 21.812 6.30868 21.863 5.8088 21.7636C5.30893 21.6641 4.84976 21.4187 4.48937 21.0583C4.12898 20.6979 3.88355 20.2388 3.78412 19.7389C3.68469 19.239 3.73572 18.7209 3.93076 18.25C4.1258 17.7791 4.4561 17.3767 4.87987 17.0935C5.30364 16.8104 5.80187 16.6592 6.31154 16.6592H8.88846V19.2362ZM10.1869 19.2362C10.1883 18.5536 10.4604 17.8994 10.9435 17.4173C11.4266 16.9351 12.0813 16.6643 12.7639 16.6643C13.4464 16.6643 14.1011 16.9351 14.5842 17.4173C15.0673 17.8994 15.3394 18.5536 15.3408 19.2362V25.6885C15.3394 26.371 15.0673 27.0252 14.5842 27.5074C14.1011 27.9895 13.4464 28.2603 12.7639 28.2603C12.0813 28.2603 11.4266 27.9895 10.9435 27.5074C10.4604 27.0252 10.1883 26.371 10.1869 25.6885V19.2362ZM12.7639 8.88848C12.2542 8.88848 11.756 8.73735 11.3322 8.45419C10.9084 8.17103 10.5781 7.76857 10.3831 7.2977C10.188 6.82683 10.137 6.30869 10.2364 5.80882C10.3359 5.30894 10.5813 4.84978 10.9417 4.48939C11.3021 4.129 11.7612 3.88357 12.2611 3.78414C12.761 3.6847 13.2791 3.73574 13.75 3.93078C14.2209 4.12582 14.6233 4.45611 14.9065 4.87988C15.1897 5.30366 15.3408 5.80188 15.3408 6.31155V8.88848H12.7639ZM12.7639 10.1869C13.1027 10.1863 13.4383 10.2524 13.7516 10.3816C14.0648 10.5108 14.3495 10.7005 14.5893 10.9399C14.8291 11.1793 15.0194 11.4636 15.1492 11.7765C15.279 12.0895 15.3459 12.425 15.3459 12.7639C15.3459 13.1027 15.279 13.4382 15.1492 13.7512C15.0194 14.0642 14.8291 14.3485 14.5893 14.5878C14.3495 14.8272 14.0648 15.0169 13.7516 15.1461C13.4383 15.2753 13.1027 15.3415 12.7639 15.3408H6.31154C5.62897 15.3395 4.97482 15.0674 4.49265 14.5842C4.01047 14.1011 3.73967 13.4464 3.73967 12.7639C3.73967 12.0813 4.01047 11.4266 4.49265 10.9435C4.97482 10.4604 5.62897 10.1883 6.31154 10.1869H12.7639ZM23.1115 12.7639C23.1115 12.2542 23.2627 11.756 23.5458 11.3322C23.829 10.9084 24.2314 10.5781 24.7023 10.3831C25.1732 10.1881 25.6913 10.137 26.1912 10.2365C26.6911 10.3359 27.1502 10.5813 27.5106 10.9417C27.871 11.3021 28.1164 11.7613 28.2159 12.2611C28.3153 12.761 28.2643 13.2791 28.0692 13.75C27.8742 14.2209 27.5439 14.6234 27.1201 14.9065C26.6963 15.1897 26.1981 15.3408 25.6885 15.3408H23.1115V12.7639ZM21.8131 12.7639C21.8131 13.1023 21.7464 13.4374 21.6169 13.75C21.4874 14.0627 21.2976 14.3467 21.0583 14.586C20.819 14.8253 20.5349 15.0151 20.2223 15.1446C19.9096 15.2741 19.5746 15.3408 19.2361 15.3408C18.8977 15.3408 18.5626 15.2741 18.25 15.1446C17.9373 15.0151 17.6533 14.8253 17.414 14.586C17.1747 14.3467 16.9849 14.0627 16.8554 13.75C16.7259 13.4374 16.6592 13.1023 16.6592 12.7639V6.31155C16.6592 5.62811 16.9307 4.97265 17.414 4.48939C17.8972 4.00612 18.5527 3.73462 19.2361 3.73462C19.9196 3.73462 20.575 4.00612 21.0583 4.48939C21.5416 4.97265 21.8131 5.62811 21.8131 6.31155V12.7639ZM19.2361 23.1115C19.7458 23.1115 20.244 23.2627 20.6678 23.5458C21.0916 23.829 21.4219 24.2314 21.6169 24.7023C21.812 25.1732 21.863 25.6913 21.7636 26.1912C21.6641 26.6911 21.4187 27.1502 21.0583 27.5106C20.6979 27.871 20.2388 28.1165 19.7389 28.2159C19.239 28.3153 18.7209 28.2643 18.25 28.0692C17.7791 27.8742 17.3767 27.5439 17.0935 27.1201C16.8104 26.6964 16.6592 26.1981 16.6592 25.6885V23.1115H19.2361ZM19.2361 21.8131C18.8977 21.8131 18.5626 21.7464 18.25 21.6169C17.9373 21.4874 17.6533 21.2976 17.414 21.0583C17.1747 20.819 16.9849 20.535 16.8554 20.2223C16.7259 19.9097 16.6592 19.5746 16.6592 19.2362C16.6592 18.8978 16.7259 18.5627 16.8554 18.25C16.9849 17.9374 17.1747 17.6533 17.414 17.414C17.6533 17.1747 17.9373 16.9849 18.25 16.8554C18.5626 16.7259 18.8977 16.6592 19.2361 16.6592H25.6885C26.0269 16.6592 26.362 16.7259 26.6746 16.8554C26.9873 16.9849 27.2713 17.1747 27.5106 17.414C27.7499 17.6533 27.9397 17.9374 28.0692 18.25C28.1987 18.5627 28.2654 18.8978 28.2654 19.2362C28.2654 19.5746 28.1987 19.9097 28.0692 20.2223C27.9397 20.535 27.7499 20.819 27.5106 21.0583C27.2713 21.2976 26.9873 21.4874 26.6746 21.6169C26.362 21.7464 26.0269 21.8131 25.6885 21.8131H19.2361Z" fill="white"/>
</svg>
